<?xml version="1.0" encoding="utf-8"?>
<!-- Generator: Adobe Illustrator 16.0.0, SVG Export Plug-In . SVG Version: 6.00 Build 0)  -->
<!DOCTYPE svg PUBLIC "-//W3C//DTD SVG 1.1//EN" "http://www.w3.org/Graphics/SVG/1.1/DTD/svg11.dtd">
<svg version="1.1" id="Capa_1" xmlns="http://www.w3.org/2000/svg" xmlns:xlink="http://www.w3.org/1999/xlink" x="0px" y="0px"
	 width="56px" height="56px" viewBox="0 0 56 56" enable-background="new 0 0 56 56" xml:space="preserve">
<g id="charging_order_2_">
	<g>
		<path fill="#404040" d="M28.992,10.706V8.659c0-0.354-0.295-0.658-0.659-0.658c-0.354,0-0.659,0.305-0.659,0.658v2.633
			c0,0.353,0.305,0.659,0.659,0.659c1.813,0,3.291,1.469,3.291,3.281c0,0.205-0.038,0.41-0.069,0.6l1.214,0.546
			c0.091-0.381,0.16-0.751,0.16-1.146C32.929,12.92,31.215,11.016,28.992,10.706z"/>
		<path fill="#404040" d="M25.052,15.232c0-0.38-0.281-0.659-0.659-0.659c-0.366,0-0.647,0.279-0.647,0.659
			c0,2.532,2.055,4.584,4.588,4.584c0.615,0,1.199-0.12,1.713-0.339l-2.259-1.024C26.249,18.19,25.052,16.846,25.052,15.232z"/>
	</g>
	<g>
		<path fill="#404040" d="M23.147,17.985l-8.567,3.562c0.44,0.233,0.835,0.568,1.155,0.948l8.171-3.396
			C23.602,18.749,23.352,18.394,23.147,17.985z"/>
		<path fill="#404040" d="M41.471,21.531l-12.889-5.596c-0.309-0.159-0.703,0-0.849,0.336c-0.151,0.325,0,0.72,0.335,0.865
			l12.241,5.328C40.632,22.071,41.017,21.752,41.471,21.531z"/>
	</g>
	<g>
		<g>
			<path fill="#404040" d="M47.354,49.996H9.305c-1.082,0-1.972-0.893-1.972-1.969V27.694c0-1.098,0.89-1.977,1.972-1.977h38.05
				c1.084,0,1.979,0.879,1.979,1.977v20.333C49.333,49.104,48.438,49.996,47.354,49.996z M9.305,27.035
				c-0.349,0-0.644,0.297-0.644,0.659v20.333c0,0.348,0.295,0.65,0.644,0.65h38.05c0.363,0,0.66-0.303,0.66-0.65V27.694
				c0-0.362-0.297-0.659-0.66-0.659H9.305z"/>
		</g>
		<g>
			<g>
				<path fill="#404040" d="M28.333,46.056c-0.354,0-0.659-0.29-0.659-0.656V30.318c0-0.381,0.305-0.661,0.659-0.661
					c0.364,0,0.659,0.28,0.659,0.661v15.081C28.992,45.766,28.697,46.056,28.333,46.056z"/>
			</g>
			<g>
				<path fill="#404040" d="M24.393,46.056c-0.366,0-0.647-0.29-0.647-0.656V30.318c0-0.381,0.281-0.661,0.647-0.661
					c0.378,0,0.659,0.28,0.659,0.661v15.081C25.052,45.766,24.771,46.056,24.393,46.056z"/>
			</g>
			<g>
				<path fill="#404040" d="M20.464,46.056c-0.362,0-0.659-0.29-0.659-0.656V30.318c0-0.381,0.297-0.661,0.659-0.661
					c0.357,0,0.661,0.28,0.661,0.661v15.081C21.125,45.766,20.821,46.056,20.464,46.056z"/>
			</g>
			<g>
				<path fill="#404040" d="M16.53,46.056c-0.373,0-0.661-0.29-0.661-0.656V30.318c0-0.381,0.288-0.661,0.661-0.661
					c0.362,0,0.644,0.28,0.644,0.661v15.081C17.174,45.766,16.893,46.056,16.53,46.056z"/>
			</g>
			<g>
				<path fill="#404040" d="M12.588,46.056c-0.364,0-0.661-0.29-0.661-0.656V30.318c0-0.381,0.297-0.661,0.661-0.661
					s0.657,0.28,0.657,0.661v15.081C13.245,45.766,12.952,46.056,12.588,46.056z"/>
			</g>
			<g>
				<path fill="#404040" d="M44.086,46.056c-0.362,0-0.657-0.29-0.657-0.656V30.318c0-0.381,0.295-0.661,0.657-0.661
					c0.356,0,0.647,0.28,0.647,0.661v15.081C44.733,45.766,44.442,46.056,44.086,46.056z"/>
			</g>
			<g>
				<path fill="#404040" d="M40.136,46.056c-0.354,0-0.659-0.29-0.659-0.656V30.318c0-0.381,0.305-0.661,0.659-0.661
					c0.366,0,0.66,0.28,0.66,0.661v15.081C40.796,45.766,40.502,46.056,40.136,46.056z"/>
			</g>
			<g>
				<path fill="#404040" d="M36.21,46.056c-0.365,0-0.658-0.29-0.658-0.656V30.318c0-0.381,0.293-0.661,0.658-0.661
					c0.364,0,0.645,0.28,0.645,0.661v15.081C36.854,45.766,36.574,46.056,36.21,46.056z"/>
			</g>
			<g>
				<path fill="#404040" d="M32.269,46.056c-0.364,0-0.645-0.29-0.645-0.656V30.318c0-0.381,0.28-0.661,0.645-0.661
					c0.355,0,0.66,0.28,0.66,0.661v15.081C32.929,45.766,32.624,46.056,32.269,46.056z"/>
			</g>
		</g>
		<g>
			<g>
				<path fill="#404040" d="M15.211,25.718h-1.305v-0.979c0-0.544-0.456-0.984-0.993-0.984c-0.545,0-0.986,0.44-0.986,0.984v0.979
					h-1.302v-0.979c0-1.274,1.022-2.298,2.288-2.298c1.257,0,2.298,1.023,2.298,2.298V25.718z"/>
			</g>
		</g>
		<g>
			<g>
				<path fill="#404040" d="M45.393,25.718h-1.307v-0.979c0-0.544-0.464-0.984-0.992-0.984c-0.554,0-0.995,0.44-0.995,0.984v0.979
					h-1.303v-0.979c0-1.274,1.025-2.298,2.298-2.298c1.259,0,2.299,1.023,2.299,2.298V25.718z"/>
			</g>
		</g>
	</g>
</g>
</svg>
