<?xml version="1.0" encoding="utf-8"?>
<!-- Generator: Adobe Illustrator 16.0.0, SVG Export Plug-In . SVG Version: 6.00 Build 0)  -->
<!DOCTYPE svg PUBLIC "-//W3C//DTD SVG 1.1//EN" "http://www.w3.org/Graphics/SVG/1.1/DTD/svg11.dtd">
<svg version="1.1" id="Capa_1" xmlns="http://www.w3.org/2000/svg" xmlns:xlink="http://www.w3.org/1999/xlink" x="0px" y="0px"
	 width="56px" height="56px" viewBox="0 0 56 56" enable-background="new 0 0 56 56" xml:space="preserve">
<g id="storage">
	<path fill="#404040" d="M21.407,36.175h-9.146c-0.743,0-1.342,0.614-1.342,1.333v9.156c0,0.736,0.6,1.336,1.342,1.336h9.146
		c0.73,0,1.32-0.6,1.32-1.336v-9.156C22.727,36.789,22.138,36.175,21.407,36.175z M15.267,37.494h3.139v1.054l-0.357-0.189
		c-0.16-0.076-0.363-0.076-0.509,0.015l-0.704,0.41l-0.705-0.41c-0.16-0.091-0.351-0.091-0.511-0.015l-0.353,0.189V37.494z
		 M21.424,46.664c0,0.016-0.017,0.016-0.017,0.016l-9.159-0.016l0.013-9.17h1.949v1.905c0,0.189,0.091,0.363,0.25,0.454
		c0.16,0.086,0.34,0.1,0.5,0.015l0.878-0.44l0.73,0.426c0.15,0.1,0.356,0.1,0.529,0l0.72-0.426l0.876,0.44
		c0.073,0.039,0.149,0.055,0.249,0.055c0.074,0,0.164-0.016,0.264-0.069c0.16-0.091,0.249-0.265,0.249-0.454v-1.892h1.966V46.664z"
		/>
	<path fill="#404040" d="M31.898,36.175h-9.142c-0.732,0-1.333,0.614-1.333,1.333v9.156c0,0.736,0.601,1.336,1.333,1.336h9.142
		c0.734,0,1.333-0.6,1.333-1.336v-9.156C33.231,36.789,32.632,36.175,31.898,36.175z M25.762,37.494h3.148v1.054l-0.366-0.189
		c-0.15-0.076-0.354-0.076-0.499,0.015l-0.704,0.41l-0.714-0.41c-0.152-0.091-0.342-0.091-0.502-0.015l-0.363,0.189V37.494z
		 M31.929,46.664c0,0.016-0.018,0.016-0.03,0.016l-9.171-0.016l0.03-9.17h1.959v1.905c0,0.189,0.09,0.363,0.249,0.454
		c0.15,0.086,0.34,0.1,0.5,0.015l0.88-0.44l0.73,0.426c0.15,0.1,0.356,0.1,0.529,0l0.72-0.426l0.866,0.44
		c0.083,0.039,0.159,0.055,0.243,0.055c0.09,0,0.18-0.016,0.28-0.069c0.16-0.091,0.25-0.265,0.25-0.454v-1.892h1.966V46.664z"/>
	<path fill="#404040" d="M42.404,36.175h-9.156c-0.72,0-1.319,0.614-1.319,1.333v9.156c0,0.736,0.599,1.336,1.319,1.336h9.156
		c0.733,0,1.333-0.6,1.333-1.336v-9.156C43.736,36.789,43.137,36.175,42.404,36.175z M36.25,37.494h3.148v1.054l-0.363-0.189
		c-0.15-0.076-0.34-0.076-0.5,0.015l-0.706,0.41l-0.713-0.41c-0.137-0.091-0.327-0.091-0.5-0.015l-0.367,0.189V37.494z
		 M42.434,46.664c0,0.016-0.017,0.016-0.03,0.016l-9.172-0.016l0.017-9.17h1.949v1.905c0,0.189,0.113,0.363,0.259,0.454
		c0.151,0.086,0.353,0.1,0.513,0.015l0.868-0.44l0.719,0.426c0.173,0.1,0.379,0.1,0.541,0l0.718-0.426l0.879,0.44
		c0.084,0.039,0.16,0.055,0.233,0.055c0.1,0,0.192-0.016,0.278-0.069c0.15-0.091,0.25-0.265,0.25-0.454v-1.892h1.979V46.664z"/>
	<path fill="#404040" d="M21.407,25.685h-9.146c-0.743,0-1.342,0.6-1.342,1.328v9.148c0,0.743,0.6,1.333,1.342,1.333h9.146
		c0.73,0,1.32-0.59,1.32-1.333v-9.148C22.727,26.284,22.138,25.685,21.407,25.685z M15.267,26.987l3.139,0.025v1.032l-0.357-0.185
		c-0.16-0.081-0.363-0.081-0.509,0.019l-0.704,0.399l-0.705-0.399c-0.16-0.1-0.351-0.1-0.511-0.019l-0.353,0.185V26.987z
		 M21.424,36.161c0,0.014-0.017,0.014-0.017,0.014l-9.159-0.014l0.013-9.174h1.949v1.906c0,0.189,0.091,0.364,0.25,0.454
		c0.16,0.1,0.34,0.1,0.5,0.025l0.878-0.45l0.73,0.425c0.15,0.1,0.356,0.1,0.529,0l0.72-0.425l0.876,0.45
		c0.073,0.029,0.149,0.06,0.249,0.06c0.074,0,0.164-0.03,0.264-0.085c0.16-0.09,0.249-0.265,0.249-0.454v-1.881h1.966V36.161z"/>
	<path fill="#404040" d="M31.898,25.685h-9.142c-0.732,0-1.333,0.6-1.333,1.328v9.148c0,0.743,0.601,1.333,1.333,1.333h9.142
		c0.734,0,1.333-0.59,1.333-1.333v-9.148C33.231,26.284,32.632,25.685,31.898,25.685z M25.762,26.987l3.148,0.025v1.032
		l-0.366-0.185c-0.15-0.081-0.354-0.081-0.499,0.019l-0.704,0.399l-0.714-0.399c-0.152-0.1-0.342-0.1-0.502-0.019l-0.363,0.185
		V26.987z M31.929,36.161c0,0.014-0.018,0.014-0.03,0.014l-9.171-0.014l0.03-9.174h1.959v1.906c0,0.189,0.09,0.364,0.249,0.454
		c0.15,0.1,0.34,0.1,0.5,0.025l0.88-0.45l0.73,0.425c0.15,0.1,0.356,0.1,0.529,0l0.72-0.425l0.866,0.45
		c0.083,0.029,0.159,0.06,0.243,0.06c0.09,0,0.18-0.03,0.28-0.085c0.16-0.09,0.25-0.265,0.25-0.454v-1.881h1.966V36.161z"/>
	<path fill="#404040" d="M42.404,25.685h-9.156c-0.72,0-1.319,0.6-1.319,1.328v9.148c0,0.743,0.599,1.333,1.319,1.333h9.156
		c0.733,0,1.333-0.59,1.333-1.333v-9.148C43.736,26.284,43.137,25.685,42.404,25.685z M36.25,26.987l3.148,0.025v1.032l-0.363-0.185
		c-0.15-0.081-0.34-0.081-0.5,0.019l-0.706,0.399l-0.713-0.399c-0.137-0.1-0.327-0.1-0.5-0.019l-0.367,0.185V26.987z M42.434,36.161
		c0,0.014-0.017,0.014-0.03,0.014l-9.172-0.014l0.017-9.174h1.949v1.906c0,0.189,0.113,0.364,0.259,0.454
		c0.151,0.1,0.353,0.1,0.513,0.025l0.868-0.45l0.719,0.425c0.173,0.1,0.379,0.1,0.541,0l0.718-0.425l0.879,0.45
		c0.084,0.029,0.16,0.06,0.233,0.06c0.1,0,0.192-0.03,0.278-0.085c0.15-0.09,0.25-0.265,0.25-0.454v-1.881h1.979V36.161z"/>
	<path fill="#404040" d="M26.665,15.189h-9.156c-0.733,0-1.333,0.59-1.333,1.335v9.13c0,0.745,0.6,1.333,1.333,1.333h9.156
		c0.72,0,1.335-0.588,1.335-1.333v-9.13C28,15.779,27.385,15.189,26.665,15.189z M20.515,16.509h3.148v1.029l-0.367-0.18
		c-0.173-0.085-0.362-0.07-0.5,0.03l-0.712,0.41l-0.707-0.41c-0.16-0.101-0.35-0.115-0.5-0.03l-0.363,0.18V16.509z M26.681,25.654
		c0,0.015-0.016,0.03-0.016,0.03l-9.17-0.03l0.014-9.16l1.949,0.015v1.903c0,0.166,0.1,0.341,0.25,0.44
		c0.16,0.09,0.35,0.104,0.51,0.015l0.879-0.439l0.72,0.439c0.177,0.09,0.367,0.09,0.541,0l0.719-0.439l0.865,0.439
		c0.073,0.045,0.161,0.06,0.233,0.06c0.1,0,0.207-0.03,0.28-0.074c0.16-0.1,0.26-0.274,0.26-0.44v-1.903l1.965,0.016V25.654z"/>
	<path fill="#404040" d="M37.146,15.189h-9.132c-0.743,0-1.333,0.59-1.333,1.335v9.13c0,0.745,0.59,1.333,1.333,1.333h9.132
		c0.743,0,1.343-0.588,1.343-1.333v-9.13C38.489,15.779,37.889,15.189,37.146,15.189z M31.002,16.509h3.166v1.029l-0.38-0.18
		c-0.16-0.085-0.35-0.07-0.509,0.03l-0.689,0.41l-0.707-0.41c-0.16-0.101-0.349-0.115-0.513-0.03l-0.367,0.18V16.509z
		 M37.187,25.654c0,0.015-0.017,0.03-0.041,0.03L28,25.654l0.014-9.16l1.948,0.015v1.903c0,0.166,0.091,0.341,0.251,0.44
		c0.159,0.09,0.349,0.104,0.509,0.015l0.879-0.439l0.707,0.439c0.174,0.09,0.379,0.09,0.53,0l0.742-0.439l0.867,0.439
		c0.06,0.045,0.16,0.06,0.233,0.06c0.09,0,0.191-0.03,0.267-0.074c0.16-0.1,0.25-0.274,0.25-0.44v-1.903l1.989,0.016V25.654z"/>
	<path fill="#404040" d="M47.911,13.654l-20.351-7.62c-0.146-0.046-0.319-0.046-0.456,0l-20.35,7.722
		c-0.334,0.119-0.5,0.5-0.38,0.834c0.1,0.266,0.35,0.425,0.616,0.425c0.074,0,0.16-0.016,0.234-0.03l20.116-7.63l20.089,7.545
		c0.35,0.129,0.73-0.044,0.851-0.395C48.411,14.18,48.234,13.8,47.911,13.654z"/>
</g>
</svg>
