<?xml version="1.0" encoding="utf-8"?>
<!-- Generator: Adobe Illustrator 16.0.0, SVG Export Plug-In . SVG Version: 6.00 Build 0)  -->
<!DOCTYPE svg PUBLIC "-//W3C//DTD SVG 1.1//EN" "http://www.w3.org/Graphics/SVG/1.1/DTD/svg11.dtd">
<svg version="1.1" id="Capa_1" xmlns="http://www.w3.org/2000/svg" xmlns:xlink="http://www.w3.org/1999/xlink" x="0px" y="0px"
	 width="56px" height="56px" viewBox="0 0 56 56" enable-background="new 0 0 56 56" xml:space="preserve">
<g id="goods_train_1_">
	<g>
		<path fill="#404040" d="M34.938,7.961c-1.804,0-3.278,1.478-3.278,3.292c0,1.803,1.475,3.283,3.278,3.283
			c1.805,0,3.273-1.48,3.273-3.283C38.212,9.438,36.743,7.961,34.938,7.961z M34.938,13.215c-1.094,0-1.972-0.877-1.972-1.962
			c0-1.095,0.878-1.974,1.972-1.974c1.074,0,1.97,0.879,1.97,1.974C36.908,12.338,36.013,13.215,34.938,13.215z"/>
		<path fill="#404040" d="M50.617,24.733l-1.261-2.479v-5.096c0-1.585-0.831-2.42-1.559-3.164l-5.246-3.927
			c-0.125-0.076-0.259-0.13-0.394-0.13h-3.946c-0.346,0-0.65,0.291-0.65,0.644c0,0.365,0.305,0.671,0.65,0.671h3.732l5.005,3.737
			c0.604,0.629,1.104,1.129,1.104,2.169v5.244c0,0.101,0.028,0.19,0.081,0.29l1.222,2.494v11.945
			c-0.847,0.605-3.211,2.58-4.408,6.266h-10.01H24.99c-0.803-3.275-3.581-5.565-4.489-6.247V25.188l1.243-2.494
			c0.044-0.1,0.06-0.189,0.06-0.29v-5.244c0-1.04,0.5-1.54,1.033-2.081l5.732-3.825h3.091c0.349,0,0.656-0.306,0.656-0.671
			c0-0.353-0.308-0.644-0.656-0.644h-3.271c-0.155,0-0.274,0.04-0.366,0.114l-6.004,4.013c-0.685,0.674-1.518,1.509-1.518,3.094
			v5.096l-1.246,2.479c-0.046,0.099-0.074,0.188-0.074,0.304v12.461c0,0.196,0.118,0.41,0.304,0.53
			c0.03,0.031,3.698,2.521,4.307,6.127c0.059,0.319,0.336,0.55,0.638,0.55h10.51h10.493c0.289,0,0.563-0.199,0.638-0.468
			c1.229-4.263,4.276-6.165,4.307-6.193c0.182-0.104,0.32-0.334,0.32-0.546V25.037C50.696,24.922,50.647,24.832,50.617,24.733z"/>
		<g>
			<path fill="#404040" d="M32.967,15.839h-7.871c-0.364,0-0.667,0.297-0.667,0.661v3.926c0,0.365,0.303,0.66,0.667,0.66h7.871
				c0.364,0,0.669-0.295,0.669-0.66V16.5C33.636,16.136,33.331,15.839,32.967,15.839z M32.316,19.781h-6.57v-2.622h6.57V19.781z"/>
			<path fill="#404040" d="M44.782,15.839h-7.874c-0.36,0-0.649,0.297-0.649,0.661v3.926c0,0.365,0.289,0.66,0.649,0.66h7.874
				c0.364,0,0.649-0.295,0.649-0.66V16.5C45.432,16.136,45.146,15.839,44.782,15.839z M44.128,19.781h-6.566v-2.622h6.566V19.781z"
				/>
		</g>
		<path fill="#404040" d="M46.858,24.468l-11.816-2.064c-0.028,0-0.072,0-0.104,0c-0.03,0-0.074,0-0.105,0l-11.816,2.064
			c-0.364,0.061-0.588,0.395-0.53,0.759c0.046,0.325,0.335,0.546,0.636,0.546c0.029,0,0.061,0,0.125-0.016l11.691-2.024
			l11.691,2.024c0.031,0.016,0.075,0.016,0.119,0.016c0.305,0,0.595-0.221,0.639-0.546C47.45,24.862,47.204,24.528,46.858,24.468z"
			/>
		<g>
			<path fill="#404040" d="M34.938,31.589c-1.273,0-2.307,1.013-2.307,2.284v3.947c0,1.274,1.033,2.29,2.307,2.29
				c1.26,0,2.289-1.016,2.289-2.29v-3.947C37.228,32.602,36.198,31.589,34.938,31.589z M35.923,37.82
				c0,0.543-0.454,0.981-0.984,0.981c-0.528,0-0.983-0.438-0.983-0.981v-3.947c0-0.523,0.455-0.981,0.983-0.981
				c0.53,0,0.984,0.458,0.984,0.981V37.82z"/>
			<path fill="#404040" d="M26.415,35.214v-2.953c0-0.366-0.305-0.672-0.669-0.672c-0.346,0-0.65,0.306-0.65,0.672v3.253
				c0,0.016,0.017,0.028,0.017,0.044c0,0.045,0.016,0.11,0.016,0.14c0.014,0.044,0.028,0.091,0.044,0.123
				c0.014,0.028,0.028,0.06,0.06,0.088c0.03,0.031,0.045,0.072,0.089,0.104c0,0,0.017,0.016,0.052,0.05
				c0.015,0.016,2.436,1.846,3.033,4.212c0.073,0.287,0.328,0.486,0.619,0.486c0.06,0,0.104,0,0.148-0.019
				c0.365-0.089,0.58-0.439,0.506-0.783C29.084,37.59,27.113,35.801,26.415,35.214z"/>
			<path fill="#404040" d="M44.782,32.261c0-0.366-0.307-0.672-0.654-0.672c-0.381,0-0.65,0.306-0.65,0.672v2.953
				c-0.715,0.587-2.688,2.376-3.276,4.745c-0.076,0.344,0.12,0.694,0.484,0.783c0.044,0.019,0.09,0.019,0.169,0.019
				c0.271,0,0.544-0.199,0.619-0.486c0.591-2.366,3.02-4.196,3.034-4.212c0.014-0.034,0.03-0.05,0.03-0.05
				c0.044-0.032,0.058-0.073,0.09-0.104c0.029-0.028,0.064-0.06,0.078-0.088c0.032-0.032,0.032-0.079,0.046-0.123
				c0.015-0.029,0.03-0.095,0.03-0.14c0-0.016,0-0.028,0-0.044V32.261z"/>
		</g>
	</g>
	<g>
		<path fill="#404040" d="M41.504,46.674H29.693c-0.365,0-0.669,0.29-0.669,0.656c0,0.378,0.304,0.649,0.669,0.649h11.811
			c0.349,0,0.654-0.271,0.654-0.649C42.158,46.964,41.853,46.674,41.504,46.674z"/>
		<path fill="#404040" d="M46.675,49.015l-1.482-2.991h-1.491l1.789,3.563c0.143,0.246,0.351,0.365,0.61,0.365
			c0.09,0,0.179-0.016,0.271-0.06C46.705,49.721,46.844,49.314,46.675,49.015z"/>
		<path fill="#404040" d="M24.521,49.015c-0.185,0.3-0.047,0.706,0.271,0.877c0.091,0.044,0.216,0.06,0.304,0.06
			c0.225,0,0.471-0.119,0.574-0.365l1.788-3.563h-1.453L24.521,49.015z"/>
		<path fill="#404040" d="M21.275,44.856l-7.995-1.411l-3.927-0.047c0,0,0,0-0.016,0c-0.364,0-0.634,0.271-0.634,0.638
			c-0.015,0.362,0.27,0.669,0.634,0.669l3.837,0.044l7.855,1.379c0.063,0.016,0.094,0.016,0.14,0.016
			c0.315,0,0.574-0.208,0.634-0.53C21.863,45.247,21.64,44.916,21.275,44.856z"/>
	</g>
	<g>
		<path fill="#404040" d="M17.981,41.442l-3.396-0.574V21.406l3.715-3.089c0.276-0.235,0.32-0.644,0.076-0.925
			c-0.226-0.279-0.633-0.309-0.925-0.09l-3.927,3.283c-0.016,0.016-0.016,0.016-0.016,0.029c-0.028,0.03-0.059,0.061-0.09,0.102
			c-0.014,0.044-0.044,0.06-0.059,0.09c-0.016,0.044-0.016,0.074-0.052,0.129c-0.015,0.045-0.028,0.09-0.028,0.12
			c0,0.015,0,0.015,0,0.03V41.43c0,0.013,0.014,0.041,0.014,0.072c0,0.032,0,0.076,0.015,0.136c0.036,0.035,0.052,0.082,0.08,0.11
			c0.017,0.044,0.03,0.061,0.062,0.092c0.03,0.028,0.059,0.06,0.089,0.088c0.031,0.032,0.062,0.045,0.09,0.061
			c0.046,0.028,0.075,0.044,0.141,0.044c0.029,0.016,0.046,0.051,0.074,0.051l3.928,0.649c0.03,0,0.074,0,0.105,0
			c0.32,0,0.607-0.211,0.653-0.542C18.59,41.84,18.331,41.489,17.981,41.442z"/>
		<path fill="#404040" d="M11.93,22.184c0,0-0.016,0-0.016-0.014c-0.015-0.046-0.028-0.076-0.059-0.106
			c-0.016-0.044-0.046-0.074-0.06-0.115c-0.03-0.028-0.061-0.044-0.092-0.06c-0.028-0.028-0.072-0.06-0.124-0.074
			c-0.028-0.014-0.074-0.014-0.104-0.03c-0.044-0.024-0.09-0.039-0.136-0.039h-0.015c-0.044,0-0.075,0.015-0.104,0.015
			c-0.03,0.024-0.097,0.024-0.126,0.024l-1.952,0.66c-0.35,0.105-0.529,0.484-0.41,0.834c0.09,0.264,0.349,0.44,0.604,0.44
			c0.074,0,0.154-0.027,0.229-0.041l1.091-0.355v17.438H9.338c-0.364,0-0.634,0.303-0.634,0.669c0,0.362,0.27,0.669,0.634,0.669
			h1.987c0.365,0,0.638-0.307,0.638-0.669V22.403c0-0.045-0.019-0.059-0.019-0.104C11.944,22.269,11.944,22.239,11.93,22.184z"/>
	</g>
</g>
</svg>
