<?xml version="1.0" encoding="utf-8"?>
<!-- Generator: Adobe Illustrator 16.0.0, SVG Export Plug-In . SVG Version: 6.00 Build 0)  -->
<!DOCTYPE svg PUBLIC "-//W3C//DTD SVG 1.1//EN" "http://www.w3.org/Graphics/SVG/1.1/DTD/svg11.dtd">
<svg version="1.1" id="Capa_1" xmlns="http://www.w3.org/2000/svg" xmlns:xlink="http://www.w3.org/1999/xlink" x="0px" y="0px"
	 width="56px" height="56px" viewBox="0 0 56 56" enable-background="new 0 0 56 56" xml:space="preserve">
<g id="support_3_">
	<g>
		<path fill="#404040" d="M28.655,34.554c-4.05,0-7.55-2.78-8.487-6.738c-0.38-1.61-0.965-4.658-1.132-6.189
			c-0.22-1.81-0.112-2.592,0.06-3.81l0.018-0.152c0.554-4.052,4.659-7.098,9.542-7.098c4.896,0,9.002,3.046,9.54,7.098l0.031,0.152
			c0.158,1.167,0.267,2.016,0.058,3.81c-0.189,1.547-0.764,4.595-1.143,6.189C36.201,31.773,32.702,34.554,28.655,34.554z
			 M28.655,11.886c-4.239,0-7.782,2.56-8.236,5.962l-0.031,0.136c-0.144,1.171-0.251,1.849-0.043,3.491
			c0.148,1.47,0.732,4.507,1.1,6.038c0.805,3.367,3.77,5.723,7.211,5.723c3.432,0,6.406-2.355,7.212-5.723
			c0.364-1.516,0.938-4.553,1.113-6.038c0.189-1.628,0.103-2.32-0.06-3.479l-0.018-0.148C36.437,14.445,32.894,11.886,28.655,11.886
			z"/>
	</g>
	<g>
		<path fill="#404040" d="M38.681,30.333c-0.044,0-0.105-0.012-0.159-0.012c-0.356-0.091-0.561-0.458-0.47-0.804
			c0.452-1.944,1.198-5.834,1.421-7.742c0.248-2.091,0.119-2.987-0.088-4.477l-0.015-0.211c-0.59-4.43-5.205-7.768-10.715-7.768
			c-5.511,0-10.113,3.338-10.698,7.768l-0.041,0.211c-0.205,1.474-0.312,2.386-0.076,4.477c0.205,1.789,0.848,5.206,1.317,7.239
			l5.967-0.013l0,0c0.362,0,0.659,0.285,0.659,0.65c0,0.347-0.297,0.653-0.659,0.653l-6.479,0.027l0,0
			c-0.318,0-0.569-0.214-0.646-0.501c-0.471-1.957-1.229-5.914-1.462-7.923c-0.27-2.242-0.132-3.257,0.073-4.79l0.041-0.193
			C17.338,11.838,22.497,8,28.655,8c6.171,0,11.329,3.838,12.006,8.926l0.028,0.193c0.206,1.533,0.351,2.548,0.086,4.806
			c-0.222,1.961-0.982,5.922-1.451,7.907C39.25,30.119,38.973,30.333,38.681,30.333z"/>
	</g>
	<g>
		<path fill="#404040" d="M17.547,30.35c-1.072,0-2.112-0.335-2.993-0.953c-1.129-0.82-1.888-2.022-2.124-3.384
			c-0.471-2.84,1.449-5.526,4.263-5.996c0.342-0.046,0.691,0.179,0.753,0.53c0.067,0.367-0.179,0.715-0.532,0.756
			c-2.108,0.367-3.545,2.369-3.196,4.48c0.179,1.05,0.738,1.929,1.589,2.53c0.851,0.609,1.873,0.837,2.898,0.673
			c0.338-0.063,0.688,0.164,0.748,0.531c0.071,0.346-0.189,0.697-0.528,0.757C18.117,30.321,17.824,30.35,17.547,30.35z"/>
	</g>
	<g>
		<path fill="#404040" d="M39.78,30.35c-0.296,0-0.6-0.028-0.896-0.075c-0.35-0.06-0.6-0.395-0.529-0.757
			c0.062-0.367,0.4-0.595,0.751-0.531c1.038,0.164,2.064-0.063,2.916-0.673c0.85-0.602,1.393-1.48,1.569-2.53
			c0.174-1.018-0.061-2.034-0.66-2.882c-0.617-0.85-1.496-1.427-2.521-1.599c-0.38-0.041-0.617-0.389-0.548-0.74
			c0.062-0.367,0.401-0.607,0.752-0.546c1.366,0.226,2.579,0.984,3.387,2.107c0.802,1.121,1.111,2.522,0.894,3.889
			c-0.233,1.361-0.994,2.563-2.124,3.384C41.891,30.015,40.835,30.35,39.78,30.35z"/>
	</g>
	<g>
		<path fill="#404040" d="M30.674,31.581h-4.027c-1.07,0-1.934-0.869-1.934-1.929c0-1.061,0.863-1.925,1.934-1.925h4.027
			c1.06,0,1.921,0.864,1.921,1.925C32.595,30.712,31.733,31.581,30.674,31.581z M26.646,29.043c-0.351,0-0.614,0.259-0.614,0.609
			c0,0.332,0.264,0.608,0.614,0.608h4.027c0.328,0,0.604-0.276,0.604-0.608c0-0.351-0.275-0.609-0.604-0.609H26.646z"/>
	</g>
	<g>
		<path fill="#404040" d="M37.231,21.203c-2.567,0-3.636-1.828-3.958-3.326c-1.57,0.939-4.577,2.365-13.207,2.365
			c-0.354,0-0.643-0.271-0.643-0.637c0-0.363,0.289-0.669,0.643-0.669c8.91,0,11.478-1.544,12.857-2.376
			c0.201-0.143,0.391-0.246,0.569-0.335c0.201-0.106,0.452-0.091,0.642,0.028c0.209,0.104,0.309,0.322,0.328,0.547
			c0,0.318,0.098,3.077,2.769,3.077c0.364,0,0.658,0.29,0.658,0.656C37.89,20.893,37.596,21.203,37.231,21.203z"/>
	</g>
	<g>
		<path fill="#404040" d="M21.839,42.87c-0.274,0-0.525-0.15-0.613-0.427l-2.202-5.602c-0.131-0.346,0.031-0.73,0.371-0.849
			c0.333-0.133,0.729,0.031,0.85,0.366l1.988,5.072l4.87-1.289c0.351-0.109,0.707,0.102,0.805,0.451
			c0.089,0.352-0.131,0.698-0.47,0.806l-5.435,1.439C21.943,42.854,21.885,42.87,21.839,42.87z"/>
	</g>
	<g>
		<path fill="#404040" d="M8.165,50.004c-0.351,0-0.646-0.29-0.659-0.641c-0.017-0.291-0.266-6.903,5.539-10.545l8.181-4.491
			c0.262-0.137,0.58-0.093,0.802,0.104c1.556,1.654,3.787,2.491,6.628,2.491c2.842,0,5.089-0.837,6.64-2.491
			c0.205-0.196,0.542-0.24,0.789-0.104l8.167,4.475c5.849,3.658,5.271,10.321,5.233,10.593c-0.014,0.365-0.342,0.638-0.706,0.597
			c-0.364-0.052-0.628-0.351-0.585-0.718c0.016-0.262,0.526-6.128-4.618-9.348l-7.692-4.224c-1.775,1.671-4.22,2.521-7.228,2.521
			c-3.018,0-5.438-0.851-7.229-2.521l-7.722,4.239c-5.13,3.231-4.896,9.301-4.88,9.361c0.014,0.365-0.266,0.688-0.629,0.701
			C8.18,50.004,8.18,50.004,8.165,50.004z"/>
	</g>
	<g>
		<path fill="#404040" d="M35.484,42.87c-0.058,0-0.104-0.016-0.171-0.031l-5.44-1.439c-0.35-0.107-0.548-0.454-0.456-0.806
			c0.091-0.35,0.439-0.561,0.808-0.451l4.865,1.289l1.993-5.072c0.119-0.335,0.498-0.499,0.848-0.366
			c0.326,0.118,0.501,0.503,0.354,0.849l-2.182,5.602C35.996,42.72,35.751,42.87,35.484,42.87z"/>
	</g>
</g>
</svg>
