<?xml version="1.0" encoding="utf-8"?>
<!-- Generator: Adobe Illustrator 16.0.0, SVG Export Plug-In . SVG Version: 6.00 Build 0)  -->
<!DOCTYPE svg PUBLIC "-//W3C//DTD SVG 1.1//EN" "http://www.w3.org/Graphics/SVG/1.1/DTD/svg11.dtd">
<svg version="1.1" id="Capa_1" xmlns="http://www.w3.org/2000/svg" xmlns:xlink="http://www.w3.org/1999/xlink" x="0px" y="0px"
	 width="56px" height="56px" viewBox="0 0 56 56" enable-background="new 0 0 56 56" xml:space="preserve">
<g id="express">
	<path fill="#404040" d="M33.547,31.003c-0.432-0.585-1.053-0.933-1.75-1.044c-1.48-0.197-2.8,0.843-2.994,2.279
		c-0.089,0.639,0.072,1.303,0.431,1.84l-6.229,7.028c-0.249,0.276-0.224,0.71,0.045,0.933c0.121,0.109,0.284,0.189,0.444,0.189
		c0.178,0,0.36-0.099,0.49-0.249l6.24-7.031c0.269,0.142,0.536,0.23,0.845,0.294c0.121,0.02,0.252,0.02,0.358,0.02
		c1.32,0,2.458-1.002,2.624-2.306C34.169,32.271,33.977,31.559,33.547,31.003z M31.262,33.904c-0.355-0.044-0.678-0.226-0.876-0.504
		c-0.232-0.274-0.323-0.626-0.278-0.98c0.103-0.647,0.668-1.155,1.32-1.155c0.07,0,0.132,0,0.192,0.013
		c0.353,0.067,0.653,0.233,0.874,0.523c0.209,0.277,0.309,0.633,0.254,0.986C32.656,33.513,31.989,34.017,31.262,33.904z"/>
	<path fill="#404040" d="M31.428,19.969c-0.358,0-0.667,0.307-0.667,0.678c0,0.37,0.309,0.676,0.667,0.676
		c6.226,0,11.296,5.052,11.296,11.262c0,6.247-5.07,11.295-11.296,11.295c-1.604,0-3.159-0.316-4.611-0.98
		c-0.328-0.134-0.729,0-0.875,0.342c-0.162,0.335,0,0.737,0.34,0.872c1.618,0.737,3.352,1.089,5.146,1.089
		c6.953,0,12.617-5.629,12.617-12.617C44.045,25.633,38.381,19.969,31.428,19.969z"/>
	<g>
		<path fill="#404040" d="M31.428,14.688c-4.878,0-9.432,1.938-12.839,5.437c-0.251,0.259-0.251,0.674,0.017,0.937
			c0.278,0.261,0.684,0.261,0.944-0.016c3.146-3.241,7.367-5.036,11.878-5.036c9.147,0,16.585,7.439,16.585,16.574
			c0,9.162-7.438,16.594-16.585,16.594c-9.131,0-16.574-7.432-16.574-16.594c0-1.025,0.098-2.069,0.297-3.099
			c0.071-0.369-0.166-0.704-0.536-0.765c-0.353-0.081-0.695,0.168-0.768,0.523c-0.199,1.081-0.313,2.222-0.313,3.34
			c0,9.887,8.036,17.916,17.895,17.916c9.885,0,17.905-8.029,17.905-17.916C49.333,22.734,41.313,14.688,31.428,14.688z"/>
		<path fill="#404040" d="M15.106,27.019c0.087,0.032,0.161,0.044,0.235,0.044c0.278,0,0.517-0.172,0.623-0.428
			c0.386-0.97,0.845-1.937,1.405-2.831c0.207-0.285,0.107-0.7-0.208-0.903c-0.307-0.179-0.722-0.109-0.903,0.217
			c-0.606,0.951-1.122,1.979-1.537,3.042C14.6,26.495,14.763,26.878,15.106,27.019z"/>
	</g>
	<g>
		<path fill="#404040" d="M46.875,17.977l-2.999-2.611c-0.277-0.249-0.707-0.217-0.944,0.061c-0.238,0.294-0.208,0.713,0.085,0.938
			l2.984,2.608c0.101,0.077,0.207,0.121,0.322,0.137c0.239,0.064,0.462-0.031,0.623-0.197
			C47.185,18.619,47.168,18.204,46.875,17.977z"/>
		<path fill="#404040" d="M35.072,8h-7.28c-1.096,0-1.997,0.891-1.997,1.979v1.355c0,1.071,0.901,1.975,1.997,1.975h7.28
			c1.099,0,1.988-0.903,1.988-1.975V9.979C37.061,8.891,36.171,8,35.072,8z M35.74,11.334c0,0.348-0.297,0.641-0.668,0.641h-7.28
			c-0.368,0-0.669-0.293-0.669-0.641V9.979c0-0.35,0.301-0.656,0.669-0.656h7.28c0.371,0,0.668,0.307,0.668,0.656V11.334z"/>
	</g>
	<g>
		<path fill="#404040" d="M26.133,20.631c0-0.368-0.298-0.678-0.666-0.678H7.572c-0.371,0-0.678,0.31-0.678,0.678
			c0,0.369,0.307,0.656,0.678,0.656h17.895C25.835,21.287,26.133,21,26.133,20.631z"/>
		<path fill="#404040" d="M28.773,25.926h-17.91c-0.383,0-0.668,0.307-0.668,0.678c0,0.348,0.285,0.658,0.668,0.658h17.91
			c0.384,0,0.668-0.311,0.668-0.658C29.441,26.232,29.157,25.926,28.773,25.926z"/>
	</g>
</g>
</svg>
